<?xml version="1.0" encoding="UTF-8"?>
<svg xmlns="http://www.w3.org/2000/svg" xmlns:xlink="http://www.w3.org/1999/xlink" width="500pt" height="500pt" viewBox="0 0 500 500" version="1.1">
<g id="surface1199150">
<path style=" stroke:none;fill-rule:nonzero;fill:rgb(32.54902%,38.039216%,99.215686%);fill-opacity:1;" d="M 120 90 C 61.679688 90 6.5625 110.625 6.5625 110.625 C 2.617188 112.070312 0 115.820312 0 120 L 0 135 C -0.0390625 138.867188 2.148438 142.382812 5.625 144.0625 L 10.9375 146.5625 C 11.992188 175.976562 19.21875 203.710938 36.5625 224.375 C 55.234375 246.640625 84.53125 260 124.0625 260 C 159.179688 260 186.679688 247.34375 204.375 226.875 C 222.070312 206.40625 230 178.945312 230 150 L 230 125.625 C 233.59375 123.398438 239.84375 120 250 120 C 260.15625 120 266.40625 123.398438 270 125.625 L 270 150 C 270 178.945312 277.929688 206.40625 295.625 226.875 C 313.320312 247.34375 340.820312 260 375.9375 260 C 415.46875 260 444.765625 246.640625 463.4375 224.375 C 480.78125 203.710938 488.007812 175.976562 489.0625 146.5625 L 494.375 144.0625 C 497.851562 142.382812 500.039062 138.867188 500 135 L 500 120 C 500 115.820312 497.382812 112.070312 493.4375 110.625 C 493.4375 110.625 438.320312 90 380 90 C 326.601562 90 287.773438 106.132812 280.9375 109.0625 C 275.585938 105.546875 265.859375 100 250 100 C 234.140625 100 224.414062 105.546875 219.0625 109.0625 C 212.226562 106.132812 173.398438 90 120 90 Z M 120 110 C 167.851562 110 202.304688 123.945312 210 127.1875 L 210 150 C 210 175.195312 202.890625 197.734375 189.0625 213.75 C 175.234375 229.765625 154.53125 240 124.0625 240 C 88.90625 240 66.601562 228.789062 51.875 211.25 C 37.148438 193.710938 30 168.789062 30 140 C 30.039062 136.132812 27.851562 132.617188 24.375 130.9375 L 20 128.75 L 20 127.5 C 28.984375 124.375 71.757812 110 120 110 Z M 380 110 C 428.242188 110 471.015625 124.375 480 127.5 L 480 128.75 L 475.625 130.9375 C 472.148438 132.617188 469.960938 136.132812 470 140 C 470 168.789062 462.851562 193.710938 448.125 211.25 C 433.398438 228.789062 411.09375 240 375.9375 240 C 345.46875 240 324.765625 229.765625 310.9375 213.75 C 297.109375 197.734375 290 175.195312 290 150 L 290 127.1875 C 297.695312 123.945312 332.148438 110 380 110 Z M 220 280 C 207.148438 280 196.835938 286.367188 190 294.375 C 183.164062 302.382812 178.828125 311.71875 174.375 320.3125 C 169.921875 328.90625 165.195312 336.757812 160 341.875 C 154.804688 346.992188 149.53125 350 140 350 C 128.320312 350 121.40625 347.226562 117.1875 344.0625 C 112.96875 340.898438 110.976562 337.109375 109.6875 332.5 C 107.109375 323.242188 109.375 312.8125 109.375 312.8125 C 110.351562 308.789062 108.75 304.609375 105.351562 302.265625 C 101.953125 299.921875 97.5 299.882812 94.0625 302.1875 C 94.0625 302.1875 70 317.851562 70 345 C 70 357.578125 74.6875 373.867188 88.125 387.1875 C 101.5625 400.507812 123.359375 410 155.3125 410 C 196.171875 410 229.53125 393.242188 250 374.375 C 270.46875 393.242188 303.828125 410 344.6875 410 C 376.640625 410 398.4375 400.507812 411.875 387.1875 C 425.3125 373.867188 430 357.578125 430 345 C 430 317.851562 405.9375 302.1875 405.9375 302.1875 C 402.5 299.882812 398.046875 299.921875 394.648438 302.265625 C 391.25 304.609375 389.648438 308.789062 390.625 312.8125 C 390.625 312.8125 392.890625 323.242188 390.3125 332.5 C 389.023438 337.109375 387.03125 340.898438 382.8125 344.0625 C 378.59375 347.226562 371.679688 350 360 350 C 350.46875 350 345.195312 346.992188 340 341.875 C 334.804688 336.757812 330.078125 328.90625 325.625 320.3125 C 321.171875 311.71875 316.835938 302.382812 310 294.375 C 303.164062 286.367188 292.851562 280 280 280 C 265.585938 280 255.625 285.351562 250 288.75 C 244.375 285.351562 234.414062 280 220 280 Z M 220 300 C 231.09375 300 244.375 308.125 244.375 308.125 C 247.773438 310.429688 252.226562 310.429688 255.625 308.125 C 255.625 308.125 268.945312 300 280 300 C 286.953125 300 290.625 302.382812 295 307.5 C 299.375 312.617188 303.515625 320.78125 308.125 329.6875 C 312.734375 338.59375 317.8125 348.242188 325.9375 356.25 C 334.0625 364.257812 345.585938 370 360 370 C 374.804688 370 386.40625 366.484375 394.6875 360.3125 C 401.914062 354.921875 405.976562 347.851562 408.4375 340.9375 C 408.75 342.421875 410 343.4375 410 345 C 410 352.421875 407.070312 363.632812 397.8125 372.8125 C 388.554688 381.992188 372.734375 390 344.6875 390 C 305.3125 390 272.226562 370.820312 257.5 354.375 C 255.585938 352.226562 252.851562 350.976562 250 350.976562 C 247.148438 350.976562 244.414062 352.226562 242.5 354.375 C 227.773438 370.820312 194.6875 390 155.3125 390 C 127.265625 390 111.445312 381.992188 102.1875 372.8125 C 92.929688 363.632812 90 352.421875 90 345 C 90 343.4375 91.25 342.421875 91.5625 340.9375 C 94.023438 347.851562 98.085938 354.921875 105.3125 360.3125 C 113.59375 366.484375 125.195312 370 140 370 C 154.414062 370 165.9375 364.257812 174.0625 356.25 C 182.1875 348.242188 187.265625 338.59375 191.875 329.6875 C 196.484375 320.78125 200.625 312.617188 205 307.5 C 209.375 302.382812 213.046875 300 220 300 Z M 220 300 "/>
</g>
</svg>
